<svg width="450" height="32" viewBox="0 0 450 32" fill="none" xmlns="http://www.w3.org/2000/svg">
<path d="M0 17C0 8.71573 6.71573 2 15 2H435C443.284 2 450 8.71573 450 17C450 25.2843 443.284 32 435 32H15C6.71574 32 0 25.2843 0 17Z" fill="#CECBCB"/>
<path d="M0 17C0 8.71573 6.71573 2 15 2H385C393.284 2 400 8.71573 400 17C400 25.2843 393.284 32 385 32H15C6.71574 32 0 25.2843 0 17Z" fill="url(#paint0_linear_27_23)"/>
<path d="M21.328 14.96C19.12 15.92 18.976 17.68 18.976 18.368C18.976 20.736 20.944 22.256 23.28 22.256C25.6 22.256 27.584 20.736 27.584 18.368C27.584 16.944 26.832 15.616 25.248 14.96C26.304 14.448 26.832 13.36 26.832 12.352C26.832 10.928 25.824 9.232 23.28 9.232C20.72 9.232 19.728 10.96 19.728 12.352C19.728 13.36 20.288 14.512 21.328 14.96ZM23.28 14.608C21.648 14.608 20.768 13.648 20.768 12.4C20.768 11.2 21.584 10.16 23.28 10.16C24.96 10.16 25.792 11.184 25.792 12.4C25.792 13.616 24.928 14.608 23.28 14.608ZM23.28 21.312C21.328 21.312 20.032 19.968 20.032 18.336C20.032 17.136 20.816 15.552 23.28 15.552C25.744 15.552 26.528 17.136 26.528 18.336C26.528 19.968 25.232 21.312 23.28 21.312ZM33.8425 22.256C38.0505 22.256 38.0985 17.2 38.0985 15.744C38.0985 14.304 38.0505 9.232 33.8425 9.232C29.6025 9.232 29.5865 14.352 29.5865 15.744C29.5865 17.12 29.6025 22.256 33.8425 22.256ZM33.8425 21.312C30.8505 21.312 30.6265 17.6 30.6265 15.744C30.6265 13.808 30.8825 10.176 33.8425 10.176C36.8505 10.176 37.0585 13.92 37.0585 15.744C37.0585 17.648 36.8185 21.312 33.8425 21.312ZM41.717 21.52C41.605 21.68 41.557 21.744 41.557 21.872C41.557 22.08 41.797 22.256 41.989 22.256C42.165 22.256 42.261 22.112 42.389 21.936L50.613 9.968C50.725 9.808 50.773 9.744 50.773 9.632C50.773 9.408 50.533 9.232 50.341 9.232C50.165 9.232 50.069 9.376 49.941 9.552L41.717 21.52ZM40.741 12.576C40.741 10.88 41.733 10.08 42.789 10.08C43.845 10.08 44.837 10.88 44.837 12.576C44.837 14.32 43.813 15.072 42.789 15.072C41.765 15.072 40.741 14.32 40.741 12.576ZM47.493 18.912C47.493 17.2 48.501 16.416 49.541 16.416C50.581 16.416 51.589 17.2 51.589 18.912C51.589 20.592 50.613 21.408 49.541 21.408C48.469 21.408 47.493 20.592 47.493 18.912ZM39.845 12.576C39.845 14.592 41.125 15.92 42.789 15.92C44.485 15.92 45.733 14.56 45.733 12.576C45.733 10.592 44.469 9.232 42.789 9.232C41.141 9.232 39.845 10.56 39.845 12.576ZM46.597 18.912C46.597 20.896 47.845 22.256 49.541 22.256C51.221 22.256 52.485 20.912 52.485 18.912C52.485 16.912 51.221 15.568 49.541 15.568C47.845 15.568 46.597 16.928 46.597 18.912Z" fill="#060606"/>
<defs>
<linearGradient id="paint0_linear_27_23" x1="465" y1="31.9999" x2="4.67063e-06" y2="32" gradientUnits="userSpaceOnUse">
<stop offset="0.0357274" stop-color="#3F46EA"/>
<stop offset="0.250166" stop-color="#3F83EA"/>
<stop offset="0.515688" stop-color="#57B8EF"/>
<stop offset="0.758405" stop-color="#6DDCF4"/>
<stop offset="1" stop-color="#B2E9F0"/>
</linearGradient>
</defs>
</svg>
